<?xml version="1.0" encoding="utf-8"?>
<!-- Generator: Adobe Illustrator 23.0.6, SVG Export Plug-In . SVG Version: 6.00 Build 0)  -->
<svg version="1.1" id="Layer_1" xmlns="http://www.w3.org/2000/svg" xmlns:xlink="http://www.w3.org/1999/xlink" x="0px" y="0px"
	 viewBox="0 0 86.9 106.2" style="enable-background:new 0 0 86.9 106.2;" xml:space="preserve">
<style type="text/css">
	.st0{opacity:0.5;}
</style>
<title>мячик</title>
<path d="M0,43.4c1-12.3,4.9-23.5,14-32.3c4.4-4.4,10.1-6.6,16-8c12.3-3,24.1-1,35.4,4.6c3.2,1.6,5.9,3.9,8,6.8
	c4.3,5.7,8.5,11.5,11.4,18.1c0.3,0.5,0.5,1,0.6,1.6c0.8,4.1,1.7,8.3,1.6,12.5c-0.2,8.6-2.3,16.7-7.9,23.5
	C74.2,76.1,68.4,81,60.8,83.3c-3.1,0.9-6.1,2-9.1,2.8c-3.4,0.8-7,1-10.5,0.6c-4.7-0.5-9.3-1.6-13.9-3c-8.8-2.8-16-7.7-20.5-16.1
	c-2.7-5-4.7-10.3-6.2-15.8C0.1,48.9-0.1,46.1,0,43.4z M84.4,40.4c-0.6-2.4-0.5-5-1.7-7.2c-2.1-4-4.5-7.9-6.8-11.8
	c-4.3-7.5-11.3-13-19.6-15.3c-1.6-0.4-2.1-0.1-2.7,1.4c-1.2,3.5-2.9,6.7-5.2,9.5c-5.6,6.4-11.6,12.3-19,16.9c-4.8,3-10,5.2-15.6,6.6
	c-3,0.7-6.1,0.3-9.1,0.9c-1.5,0.3-2.1,0.9-2.2,2.4c-0.3,4.7,0.4,9.4,2.1,13.7c1.7,4.2,3.8,8.2,6.2,12c2.9,4.4,7,7.8,11.8,9.9
	c1.2,0.6,2,0.6,2.7-0.8c2.3-4,5.2-7.7,8.6-10.9c6.2-6,12.6-11.8,20-16.3c6.3-3.9,12.8-6.9,20.1-8c2.8-0.4,5.6-0.8,8.4-1.1
	C83.8,42.1,84.5,41.8,84.4,40.4L84.4,40.4z M81.1,44.4c-4.3,0.1-8.6,0.8-12.7,2.2c-8.9,3.2-17.1,8.1-24,14.5
	c-1.8,1.6-3.5,3.3-5.3,4.8c-4.7,3.7-7.9,8.5-11.2,13.3c-1.2,1.7-0.9,2.3,1,3c3.7,1.2,7.5,2,11.3,2.5c2.1,0.2,4.3,0.7,6.4,0.2
	c2.8-0.6,5.7-1.3,8.5-1.9c9.3-1.9,16.9-6.9,22.8-14.4c5.1-6.5,6.3-14.2,7.1-22c0.1-1.3-0.7-1.9-1.8-2C82.5,44.4,81.8,44.4,81.1,44.4
	L81.1,44.4z M2.9,39c0.3,0.2,0.7,0.3,1.1,0.4c7.1,0.4,14.1-1.2,20.3-4.4c9.3-4.8,16.7-11.7,23.1-19.7c1.9-2.3,3.3-4.9,4.1-7.8
	c0.6-1.9,0-2.7-1.6-3c-7-1.1-14-1.3-20.9,1C21.4,8,14.4,11.4,10,18.7C6.2,24.9,3.7,31.8,2.9,39z"/>
<g class="st0">
	
		<image style="overflow:visible;" width="127" height="77" xlink:href="D62ADF080CD0E3D9.png"  transform="matrix(1 0 0 1 -20 58.2)">
	</image>
</g>
</svg>
