<?xml version="1.0" encoding="utf-8"?>
<!-- Generator: Adobe Illustrator 23.0.6, SVG Export Plug-In . SVG Version: 6.00 Build 0)  -->
<svg version="1.1" id="Layer_1" xmlns="http://www.w3.org/2000/svg" xmlns:xlink="http://www.w3.org/1999/xlink" x="0px" y="0px"
	 viewBox="0 0 90 112.5" style="enable-background:new 0 0 90 112.5;" xml:space="preserve">
<title>Pet</title>
<path d="M46.4,94.3c-6.7,0.3-13.3-1.1-19.3-3.9c-5.4-2.6-8.9-6.8-11.1-12c-3-7-3.1-14.3-1.2-21.6c2.1-9,6.7-17.3,13.2-23.8
	c6.1-6.3,14.8-9.2,23.5-8c3.3,0.5,6.4,1.7,9.3,3.5c4.5,2.3,8.5,5.5,11.9,9.3c4.1,5,6.8,11.1,7.8,17.6c1.7,10.2-1.3,19.3-7.8,27.1
	C65.8,90.5,57.1,95.1,46.4,94.3z M59.5,30.3c-1.1-0.6-1.9-1.1-2.8-1.4c-5.5-2.4-11-2.6-16.5-0.1c-1.7,0.9-3.5,1.6-5.3,2
	c-2.8,0.4-4,2.6-3.5,5.5c0.4,1.9,0.7,3.8,0.9,5.8c0.3,5.6,0.4,11.2,0.5,16.8c0.1,7.9-0.9,15.8-3.2,23.3c-0.6,2-1.4,3.9-2.2,6.2
	c2.4,1,4.6,2,6.9,2.8c5,1.7,10.2,1.4,15.4,1.3c2.2-0.1,4.3-0.5,6.4-1.2c3-1,6.2-2,8.3-4.4c-0.8-0.8-1.9-1.5-2.2-2.4
	c-0.9-2.4-1.7-5-2.3-7.5c-2.3-10.5-2.5-21.2-2.1-31.9C57.9,40.1,57.9,35.2,59.5,30.3L59.5,30.3z M65.4,34.3c-0.9,3-1.4,6.1-1.3,9.2
	c0,5.5,0.3,11,0.5,16.5c0.1,5.4,0.9,10.8,2.5,16c0.6,1.9,0.7,4.1,2.4,5.6C83.7,67.9,79.6,44.5,65.4,34.3L65.4,34.3z M20.6,81.9
	c0.3-0.4,0.5-0.8,0.7-1.2c2.4-5.8,3.8-11.9,4.2-18.1c0.4-6.4,0.8-12.8,0.1-19.1c-0.1-0.9,0-1.9-1.3-2.6c-1.5,2.8-3,5.5-4.3,8.2
	c-3.9,7.8-4.9,16.6-3.1,25C17.5,77,18.8,79.6,20.6,81.9z M24.8,86.1c1.7-3.4,3-6.9,3.8-10.6c2.3-10.6,2.1-21.4,1.5-32.1
	c-0.2-2.4-0.7-4.8-1.5-7.1c-1.6,1.5-1.6,1.5-1.5,3c0.1,1.1,0.4,2.2,0.5,3.4c1,11.9,1,23.7-2.6,35.3c-0.6,1.8-1,3.7-1.7,5.5
	C22.8,84.7,23.1,85.5,24.8,86.1L24.8,86.1z M62.9,32.5c-2.1,1-2.2,2.8-2.4,4.5c-0.8,7.3-0.6,14.7-0.5,22c0.2,6.8,1.1,13.5,2.9,20
	c0.4,2.5,1.7,4.7,3.5,6.4l1.6-1.6c-0.9-1.2-1.8-1.9-2.1-2.8c-1.1-3.6-2-7.3-2.6-11c-0.6-4.1-0.7-8.4-1-12.5
	c-0.6-7.6-0.8-15.2,0.5-22.8C62.9,33.9,62.9,33.2,62.9,32.5z"/>
<path d="M50.4,68.2c0.1,0.8,0.1,1.5,0.1,2.3c-0.3,1.2-0.6,2.3-1,3.5c0,0.1-0.3,0.2-0.4,0.2c-0.8,0.2-1.4,0-1.6-0.9
	C47.2,72.1,48.8,69.2,50.4,68.2z"/>
<path d="M39.4,35.1c0.4-0.5,0.6-1,1-1.2c0.2-0.1,0.8,0.2,1,0.5c0.5,1,1,2,1.3,3.1c0.1,0.4-0.2,0.9-0.3,1.4c-0.5-0.2-1.3-0.2-1.5-0.5
	C40.3,37.4,39.8,36.3,39.4,35.1z"/>
<path d="M46.2,34.2c0.6,1.6,0.1,2.9-0.2,4.2c-0.2,0.4-0.7,0.7-1.2,0.7c-0.4-0.1-1-0.7-0.9-1C44.1,36.5,44.4,34.9,46.2,34.2z"/>
<path d="M52.5,73.2c0.6,1.2,0.5,2.7-0.2,3.9c-0.3,0.6-0.9,0.9-1.5,0.6c-0.1,0-0.2-0.1-0.2-0.1c-0.5-0.3-0.7-0.9-0.5-1.4
	c0.1-0.1,0.2-0.2,0.3-0.3C50.8,75,51.5,74.3,52.5,73.2z"/>
<path d="M70.9,58.8l3.1-2.2c0.5,2,0.2,3.5-0.8,3.8C71.8,60.8,71.4,59.7,70.9,58.8L70.9,58.8z"/>
<path d="M71,58.8c-2,0.3-2.5,0-2.2-1.7c0.2-1,0.2-2.1,1.8-2.4C71.1,55.9,71.2,57.4,71,58.8L71,58.8z"/>
<path d="M17.5,65.7c0.2-0.2,0.4-1,0.8-1.1c0.8-0.3,1.2,0.4,1.5,1.1c0.1,0.3,0.2,0.7,0.2,1c0.2,0.8,0.6,1.9-0.7,2.1
	c-1.1,0.2-1.5-0.7-1.6-1.7C17.7,66.8,17.6,66.4,17.5,65.7z"/>
<path d="M23,61.9c0.1,0.8,0.2,1.6,0.2,2.4c0.1,0.7-0.4,1.3-1,1.4c-0.1,0-0.3,0-0.4,0c-0.9-0.1-1-0.9-0.7-1.6s0.8-1.6,1.2-2.4
	L23,61.9z"/>
</svg>
